# xmcd
#
# Track frame offsets:
#	150
#	17545
#	32116
#	47297
#	63768
#	77780
#	87169
#	101755
#	115753
#	128234
#	142172
#	157405
#	173764
#	192515
#	209841
#	226939
#	240774
#	257633
#	274270
#
# Disc length: 3843 seconds
#
# Revision: 1
# Processed by: cddbd v1.5.2PL0 Copyright (c) Steve Scherf et al.
# Submitted via: audiograbber 1.83.01
#
DISCID=060f0113
DTITLE=Compilation - Hott Country 207
DYEAR=2013
DGENRE=Country
TTITLE0=Luke Bryan - Crash My Party
TTITLE1=Jason Greeley - Wasn't That A Party
TTITLE2=Thompson Square - If I Didn't Have You
TTITLE3=Little Big Town - Your Side Of The Bed
TTITLE4=Kacey Musgraves - Blowin' Smoke
TTITLE5=Lennon and Maisy Stella - Ho Hey
TTITLE6=Dean Brody - Dirt
TTITLE7=Thomas Rhett - It Goes Like This
TTITLE8=Eric Paslay - Friday Night
TTITLE9=Lee Brice - Parking Lot Party
TTITLE10=Kira Isabella - Blame It On Your Truck
TTITLE11=Lady Antebellum - Goodbye Town
TTITLE12=Small Town Pistols - Blame It On The Radio
TTITLE13=Clayton Bellamy - Goodbye America
TTITLE14=Bryce Pallister - One Of These Days
TTITLE15=Dallas Smith - Nothing But Summer
TTITLE16=Scotty McCreery - See You Tonight
TTITLE17=Wake Owl - Wild Country
TTITLE18=Bobby Wills - If it Was That Easy
EXTD=May 2013
EXTT0=
EXTT1=
EXTT2=
EXTT3=
EXTT4=
EXTT5=
EXTT6=
EXTT7=
EXTT8=
EXTT9=
EXTT10=
EXTT11=
EXTT12=
EXTT13=
EXTT14=
EXTT15=
EXTT16=
EXTT17=
EXTT18=
PLAYORDER=
